%TF.GenerationSoftware,KiCad,Pcbnew,(7.0.0)*%
%TF.CreationDate,2023-05-30T18:27:12+05:30*%
%TF.ProjectId,voltmeter-pcb,766f6c74-6d65-4746-9572-2d7063622e6b,rev?*%
%TF.SameCoordinates,Original*%
%TF.FileFunction,Copper,L1,Top*%
%TF.FilePolarity,Positive*%
%FSLAX46Y46*%
G04 Gerber Fmt 4.6, Leading zero omitted, Abs format (unit mm)*
G04 Created by KiCad (PCBNEW (7.0.0)) date 2023-05-30 18:27:12*
%MOMM*%
%LPD*%
G01*
G04 APERTURE LIST*
G04 Aperture macros list*
%AMRoundRect*
0 Rectangle with rounded corners*
0 $1 Rounding radius*
0 $2 $3 $4 $5 $6 $7 $8 $9 X,Y pos of 4 corners*
0 Add a 4 corners polygon primitive as box body*
4,1,4,$2,$3,$4,$5,$6,$7,$8,$9,$2,$3,0*
0 Add four circle primitives for the rounded corners*
1,1,$1+$1,$2,$3*
1,1,$1+$1,$4,$5*
1,1,$1+$1,$6,$7*
1,1,$1+$1,$8,$9*
0 Add four rect primitives between the rounded corners*
20,1,$1+$1,$2,$3,$4,$5,0*
20,1,$1+$1,$4,$5,$6,$7,0*
20,1,$1+$1,$6,$7,$8,$9,0*
20,1,$1+$1,$8,$9,$2,$3,0*%
G04 Aperture macros list end*
%TA.AperFunction,ComponentPad*%
%ADD10R,1.700000X1.700000*%
%TD*%
%TA.AperFunction,ComponentPad*%
%ADD11O,1.700000X1.700000*%
%TD*%
%TA.AperFunction,SMDPad,CuDef*%
%ADD12R,3.500000X1.700000*%
%TD*%
%TA.AperFunction,SMDPad,CuDef*%
%ADD13R,1.700000X3.500000*%
%TD*%
%TA.AperFunction,SMDPad,CuDef*%
%ADD14RoundRect,0.250000X-0.312500X-0.625000X0.312500X-0.625000X0.312500X0.625000X-0.312500X0.625000X0*%
%TD*%
%TA.AperFunction,Conductor*%
%ADD15C,0.250000*%
%TD*%
%TA.AperFunction,Conductor*%
%ADD16C,0.500000*%
%TD*%
G04 APERTURE END LIST*
D10*
%TO.P,J1,1,Pin_1*%
%TO.N,/SIG*%
X156022499Y-118719999D03*
D11*
%TO.P,J1,2,Pin_2*%
%TO.N,5V*%
X156022499Y-121259999D03*
%TO.P,J1,3,Pin_3*%
%TO.N,GND*%
X156022499Y-123799999D03*
%TD*%
D10*
%TO.P,J2,1,Pin_1*%
%TO.N,/GP13*%
X156047499Y-131409999D03*
D11*
%TO.P,J2,2,Pin_2*%
%TO.N,/GP12*%
X156047499Y-133949999D03*
%TO.P,J2,3,Pin_3*%
%TO.N,GND*%
X156047499Y-136489999D03*
%TO.P,J2,4,Pin_4*%
%TO.N,5V*%
X156047499Y-139029999D03*
%TD*%
%TO.P,U1,1,GPIO0*%
%TO.N,/CLK*%
X133307499Y-46529999D03*
D12*
X132407499Y-46529999D03*
D11*
%TO.P,U1,2,GPIO1*%
%TO.N,/DIO*%
X133307499Y-49069999D03*
D12*
X132407499Y-49069999D03*
D10*
%TO.P,U1,3,GND*%
%TO.N,GND*%
X133307499Y-51609999D03*
D12*
X132407499Y-51609999D03*
D11*
%TO.P,U1,4,GPIO2*%
%TO.N,unconnected-(U1-GPIO2-Pad4)*%
X133307499Y-54149999D03*
D12*
X132407499Y-54149999D03*
D11*
%TO.P,U1,5,GPIO3*%
%TO.N,/GP12*%
X133307499Y-56689999D03*
D12*
X132407499Y-56689999D03*
D11*
%TO.P,U1,6,GPIO4*%
%TO.N,/GP13*%
X133307499Y-59229999D03*
D12*
X132407499Y-59229999D03*
D11*
%TO.P,U1,7,GPIO5*%
%TO.N,unconnected-(U1-GPIO5-Pad7)*%
X133307499Y-61769999D03*
D12*
X132407499Y-61769999D03*
D10*
%TO.P,U1,8,GND*%
%TO.N,GND*%
X133307499Y-64309999D03*
D12*
X132407499Y-64309999D03*
D11*
%TO.P,U1,9,GPIO6*%
%TO.N,unconnected-(U1-GPIO6-Pad9)*%
X133307499Y-66849999D03*
D12*
X132407499Y-66849999D03*
D11*
%TO.P,U1,10,GPIO7*%
%TO.N,unconnected-(U1-GPIO7-Pad10)*%
X133307499Y-69389999D03*
D12*
X132407499Y-69389999D03*
D11*
%TO.P,U1,11,GPIO8*%
%TO.N,unconnected-(U1-GPIO8-Pad11)*%
X133307499Y-71929999D03*
D12*
X132407499Y-71929999D03*
D11*
%TO.P,U1,12,GPIO9*%
%TO.N,unconnected-(U1-GPIO9-Pad12)*%
X133307499Y-74469999D03*
D12*
X132407499Y-74469999D03*
D10*
%TO.P,U1,13,GND*%
%TO.N,unconnected-(U1-GND-Pad13)*%
X133307499Y-77009999D03*
D12*
X132407499Y-77009999D03*
D11*
%TO.P,U1,14,GPIO10*%
%TO.N,unconnected-(U1-GPIO10-Pad14)*%
X133307499Y-79549999D03*
D12*
X132407499Y-79549999D03*
D11*
%TO.P,U1,15,GPIO11*%
%TO.N,unconnected-(U1-GPIO11-Pad15)*%
X133307499Y-82089999D03*
D12*
X132407499Y-82089999D03*
D11*
%TO.P,U1,16,GPIO12*%
%TO.N,unconnected-(U1-GPIO12-Pad16)*%
X133307499Y-84629999D03*
D12*
X132407499Y-84629999D03*
D11*
%TO.P,U1,17,GPIO13*%
%TO.N,unconnected-(U1-GPIO13-Pad17)*%
X133307499Y-87169999D03*
D12*
X132407499Y-87169999D03*
D10*
%TO.P,U1,18,GND*%
%TO.N,unconnected-(U1-GND-Pad18)*%
X133307499Y-89709999D03*
D12*
X132407499Y-89709999D03*
D11*
%TO.P,U1,19,GPIO14*%
%TO.N,unconnected-(U1-GPIO14-Pad19)*%
X133307499Y-92249999D03*
D12*
X132407499Y-92249999D03*
D11*
%TO.P,U1,20,GPIO15*%
%TO.N,unconnected-(U1-GPIO15-Pad20)*%
X133307499Y-94789999D03*
D12*
X132407499Y-94789999D03*
D11*
%TO.P,U1,21,GPIO16*%
%TO.N,unconnected-(U1-GPIO16-Pad21)*%
X151087499Y-94789999D03*
D12*
X151987499Y-94789999D03*
D11*
%TO.P,U1,22,GPIO17*%
%TO.N,unconnected-(U1-GPIO17-Pad22)*%
X151087499Y-92249999D03*
D12*
X151987499Y-92249999D03*
D10*
%TO.P,U1,23,GND*%
%TO.N,unconnected-(U1-GND-Pad23)*%
X151087499Y-89709999D03*
D12*
X151987499Y-89709999D03*
D11*
%TO.P,U1,24,GPIO18*%
%TO.N,unconnected-(U1-GPIO18-Pad24)*%
X151087499Y-87169999D03*
D12*
X151987499Y-87169999D03*
D11*
%TO.P,U1,25,GPIO19*%
%TO.N,unconnected-(U1-GPIO19-Pad25)*%
X151087499Y-84629999D03*
D12*
X151987499Y-84629999D03*
D11*
%TO.P,U1,26,GPIO20*%
%TO.N,unconnected-(U1-GPIO20-Pad26)*%
X151087499Y-82089999D03*
D12*
X151987499Y-82089999D03*
D11*
%TO.P,U1,27,GPIO21*%
%TO.N,unconnected-(U1-GPIO21-Pad27)*%
X151087499Y-79549999D03*
D12*
X151987499Y-79549999D03*
D10*
%TO.P,U1,28,GND*%
%TO.N,GND*%
X151087499Y-77009999D03*
D12*
X151987499Y-77009999D03*
D11*
%TO.P,U1,29,GPIO22*%
%TO.N,unconnected-(U1-GPIO22-Pad29)*%
X151087499Y-74469999D03*
D12*
X151987499Y-74469999D03*
D11*
%TO.P,U1,30,RUN*%
%TO.N,unconnected-(U1-RUN-Pad30)*%
X151087499Y-71929999D03*
D12*
X151987499Y-71929999D03*
D11*
%TO.P,U1,31,GPIO26_ADC0*%
%TO.N,/SIG*%
X151087499Y-69389999D03*
D12*
X151987499Y-69389999D03*
D11*
%TO.P,U1,32,GPIO27_ADC1*%
%TO.N,unconnected-(U1-GPIO27_ADC1-Pad32)*%
X151087499Y-66849999D03*
D12*
X151987499Y-66849999D03*
D10*
%TO.P,U1,33,AGND*%
%TO.N,unconnected-(U1-AGND-Pad33)*%
X151087499Y-64309999D03*
D12*
X151987499Y-64309999D03*
D11*
%TO.P,U1,34,GPIO28_ADC2*%
%TO.N,unconnected-(U1-GPIO28_ADC2-Pad34)*%
X151087499Y-61769999D03*
D12*
X151987499Y-61769999D03*
D11*
%TO.P,U1,35,ADC_VREF*%
%TO.N,unconnected-(U1-ADC_VREF-Pad35)*%
X151087499Y-59229999D03*
D12*
X151987499Y-59229999D03*
D11*
%TO.P,U1,36,3V3*%
%TO.N,unconnected-(U1-3V3-Pad36)*%
X151087499Y-56689999D03*
D12*
X151987499Y-56689999D03*
D11*
%TO.P,U1,37,3V3_EN*%
%TO.N,unconnected-(U1-3V3_EN-Pad37)*%
X151087499Y-54149999D03*
D12*
X151987499Y-54149999D03*
D10*
%TO.P,U1,38,GND*%
%TO.N,unconnected-(U1-GND-Pad38)*%
X151087499Y-51609999D03*
D12*
X151987499Y-51609999D03*
D11*
%TO.P,U1,39,VSYS*%
%TO.N,unconnected-(U1-VSYS-Pad39)*%
X151087499Y-49069999D03*
D12*
X151987499Y-49069999D03*
D11*
%TO.P,U1,40,VBUS*%
%TO.N,5V*%
X151087499Y-46529999D03*
D12*
X151987499Y-46529999D03*
D11*
%TO.P,U1,41,SWCLK*%
%TO.N,unconnected-(U1-SWCLK-Pad41)*%
X139657499Y-94559999D03*
D13*
X139657499Y-95459999D03*
D10*
%TO.P,U1,42,GND*%
%TO.N,unconnected-(U1-GND-Pad42)*%
X142197499Y-94559999D03*
D13*
X142197499Y-95459999D03*
D11*
%TO.P,U1,43,SWDIO*%
%TO.N,unconnected-(U1-SWDIO-Pad43)*%
X144737499Y-94559999D03*
D13*
X144737499Y-95459999D03*
%TD*%
D14*
%TO.P,R1,1*%
%TO.N,/VIN*%
X139000000Y-101880000D03*
%TO.P,R1,2*%
%TO.N,/SIG*%
X141925000Y-101880000D03*
%TD*%
D10*
%TO.P,J4,1,Pin_1*%
%TO.N,GND*%
X148002499Y-158289999D03*
D11*
%TO.P,J4,2,Pin_2*%
%TO.N,5V*%
X145462499Y-158289999D03*
%TO.P,J4,3,Pin_3*%
%TO.N,/DIO*%
X142922499Y-158289999D03*
%TO.P,J4,4,Pin_4*%
%TO.N,/CLK*%
X140382499Y-158289999D03*
%TD*%
D14*
%TO.P,R2,1*%
%TO.N,/SIG*%
X143910000Y-101990000D03*
%TO.P,R2,2*%
%TO.N,GND*%
X146835000Y-101990000D03*
%TD*%
D10*
%TO.P,J3,1,Pin_1*%
%TO.N,/VIN*%
X129022499Y-109849999D03*
D11*
%TO.P,J3,2,Pin_2*%
%TO.N,GND*%
X129022499Y-112389999D03*
%TD*%
D15*
%TO.N,/SIG*%
X143800000Y-101880000D02*
X143910000Y-101990000D01*
X151087500Y-69390000D02*
X149912400Y-69390000D01*
D16*
X141925000Y-101880000D02*
X143800000Y-101880000D01*
X145946300Y-99733700D02*
X143800000Y-101880000D01*
D15*
X156022500Y-118720000D02*
X156022500Y-117544900D01*
D16*
X145946300Y-73356100D02*
X145946300Y-99733700D01*
X156022500Y-117544900D02*
X143910000Y-105432400D01*
X143910000Y-105432400D02*
X143910000Y-101990000D01*
D15*
X149912400Y-69390000D02*
X145946300Y-73356100D01*
%TO.N,GND*%
X149912400Y-98912600D02*
X146835000Y-101990000D01*
D16*
X156047500Y-137297900D02*
X155680300Y-137665100D01*
D15*
X149912400Y-77010000D02*
X149912400Y-98912600D01*
X156387700Y-122624900D02*
X156022500Y-122624900D01*
X146835000Y-101990000D02*
X157216700Y-112371700D01*
X157216700Y-121795900D02*
X156387700Y-122624900D01*
X156022500Y-123800000D02*
X156022500Y-122624900D01*
D16*
X156047500Y-136490000D02*
X156047500Y-137297900D01*
D15*
X157216700Y-112371700D02*
X157216700Y-121795900D01*
X151087500Y-77010000D02*
X149912400Y-77010000D01*
D16*
X148002500Y-145342900D02*
X148002500Y-158290000D01*
X155680300Y-137665100D02*
X148002500Y-145342900D01*
%TO.N,/VIN*%
X131030000Y-109850000D02*
X139000000Y-101880000D01*
X129022500Y-109850000D02*
X131030000Y-109850000D01*
D15*
X129022000Y-109850000D02*
X129022500Y-109850000D01*
D16*
%TO.N,/DIO*%
X140832700Y-155025100D02*
X140832700Y-55420100D01*
X140832700Y-55420100D02*
X134482600Y-49070000D01*
D15*
X133307500Y-49070000D02*
X134482600Y-49070000D01*
D16*
X142922500Y-157114900D02*
X140832700Y-155025100D01*
X142922500Y-158290000D02*
X142922500Y-157114900D01*
%TD*%
M02*
