%TF.GenerationSoftware,KiCad,Pcbnew,(7.0.0)*%
%TF.CreationDate,2023-05-30T18:27:12+05:30*%
%TF.ProjectId,voltmeter-pcb,766f6c74-6d65-4746-9572-2d7063622e6b,rev?*%
%TF.SameCoordinates,Original*%
%TF.FileFunction,Other,User*%
%FSLAX46Y46*%
G04 Gerber Fmt 4.6, Leading zero omitted, Abs format (unit mm)*
G04 Created by KiCad (PCBNEW (7.0.0)) date 2023-05-30 18:27:12*
%MOMM*%
%LPD*%
G01*
G04 APERTURE LIST*
%ADD10C,0.050000*%
%ADD11C,0.120000*%
G04 APERTURE END LIST*
D10*
%TO.C,J1*%
X154222500Y-116920000D02*
X157772500Y-116920000D01*
X154222500Y-125570000D02*
X154222500Y-116920000D01*
X157772500Y-116920000D02*
X157772500Y-125570000D01*
X157772500Y-125570000D02*
X154222500Y-125570000D01*
%TO.C,J2*%
X154247500Y-129610000D02*
X157797500Y-129610000D01*
X154247500Y-140810000D02*
X154247500Y-129610000D01*
X157797500Y-129610000D02*
X157797500Y-140810000D01*
X157797500Y-140810000D02*
X154247500Y-140810000D01*
D11*
%TO.C,U1*%
X131197500Y-44660000D02*
X153197500Y-44660000D01*
X131197500Y-96660000D02*
X131197500Y-44660000D01*
X153197500Y-44660000D02*
X153197500Y-96660000D01*
X153197500Y-96660000D02*
X131197500Y-96660000D01*
D10*
%TO.C,R1*%
X138182500Y-100760000D02*
X142742500Y-100760000D01*
X138182500Y-103000000D02*
X138182500Y-100760000D01*
X142742500Y-100760000D02*
X142742500Y-103000000D01*
X142742500Y-103000000D02*
X138182500Y-103000000D01*
%TO.C,J4*%
X149802500Y-156490000D02*
X149802500Y-160040000D01*
X138602500Y-156490000D02*
X149802500Y-156490000D01*
X149802500Y-160040000D02*
X138602500Y-160040000D01*
X138602500Y-160040000D02*
X138602500Y-156490000D01*
%TO.C,R2*%
X143092500Y-100870000D02*
X147652500Y-100870000D01*
X143092500Y-103110000D02*
X143092500Y-100870000D01*
X147652500Y-100870000D02*
X147652500Y-103110000D01*
X147652500Y-103110000D02*
X143092500Y-103110000D01*
%TO.C,J3*%
X127222500Y-108050000D02*
X130772500Y-108050000D01*
X127222500Y-114150000D02*
X127222500Y-108050000D01*
X130772500Y-108050000D02*
X130772500Y-114150000D01*
X130772500Y-114150000D02*
X127222500Y-114150000D01*
%TD*%
M02*
