%TF.GenerationSoftware,KiCad,Pcbnew,(7.0.0)*%
%TF.CreationDate,2023-05-30T18:27:12+05:30*%
%TF.ProjectId,voltmeter-pcb,766f6c74-6d65-4746-9572-2d7063622e6b,rev?*%
%TF.SameCoordinates,Original*%
%TF.FileFunction,OtherDrawing,Comment*%
%FSLAX46Y46*%
G04 Gerber Fmt 4.6, Leading zero omitted, Abs format (unit mm)*
G04 Created by KiCad (PCBNEW (7.0.0)) date 2023-05-30 18:27:12*
%MOMM*%
%LPD*%
G01*
G04 APERTURE LIST*
%ADD10C,0.100000*%
G04 APERTURE END LIST*
%TO.C,U1*%
G36*
X140697500Y-54160000D02*
G01*
X138697500Y-54160000D01*
X138697500Y-52160000D01*
X140697500Y-52160000D01*
X140697500Y-54160000D01*
G37*
D10*
X140697500Y-54160000D02*
X138697500Y-54160000D01*
X138697500Y-52160000D01*
X140697500Y-52160000D01*
X140697500Y-54160000D01*
G36*
X140697500Y-56660000D02*
G01*
X138697500Y-56660000D01*
X138697500Y-54660000D01*
X140697500Y-54660000D01*
X140697500Y-56660000D01*
G37*
X140697500Y-56660000D02*
X138697500Y-56660000D01*
X138697500Y-54660000D01*
X140697500Y-54660000D01*
X140697500Y-56660000D01*
G36*
X140697500Y-59160000D02*
G01*
X138697500Y-59160000D01*
X138697500Y-57160000D01*
X140697500Y-57160000D01*
X140697500Y-59160000D01*
G37*
X140697500Y-59160000D02*
X138697500Y-59160000D01*
X138697500Y-57160000D01*
X140697500Y-57160000D01*
X140697500Y-59160000D01*
G36*
X145897500Y-50460000D02*
G01*
X138497500Y-50460000D01*
X138497500Y-45760000D01*
X145897500Y-45760000D01*
X145897500Y-50460000D01*
G37*
X145897500Y-50460000D02*
X138497500Y-50460000D01*
X138497500Y-45760000D01*
X145897500Y-45760000D01*
X145897500Y-50460000D01*
%TD*%
M02*
