%TF.GenerationSoftware,KiCad,Pcbnew,(7.0.0)*%
%TF.CreationDate,2023-05-30T18:27:12+05:30*%
%TF.ProjectId,voltmeter-pcb,766f6c74-6d65-4746-9572-2d7063622e6b,rev?*%
%TF.SameCoordinates,Original*%
%TF.FileFunction,AssemblyDrawing,Top*%
%FSLAX46Y46*%
G04 Gerber Fmt 4.6, Leading zero omitted, Abs format (unit mm)*
G04 Created by KiCad (PCBNEW (7.0.0)) date 2023-05-30 18:27:12*
%MOMM*%
%LPD*%
G01*
G04 APERTURE LIST*
%ADD10C,0.150000*%
%ADD11C,0.120000*%
%ADD12C,0.100000*%
G04 APERTURE END LIST*
D10*
%TO.C,J1*%
X154284405Y-126889761D02*
X154427262Y-126937380D01*
X154427262Y-126937380D02*
X154665357Y-126937380D01*
X154665357Y-126937380D02*
X154760595Y-126889761D01*
X154760595Y-126889761D02*
X154808214Y-126842142D01*
X154808214Y-126842142D02*
X154855833Y-126746904D01*
X154855833Y-126746904D02*
X154855833Y-126651666D01*
X154855833Y-126651666D02*
X154808214Y-126556428D01*
X154808214Y-126556428D02*
X154760595Y-126508809D01*
X154760595Y-126508809D02*
X154665357Y-126461190D01*
X154665357Y-126461190D02*
X154474881Y-126413571D01*
X154474881Y-126413571D02*
X154379643Y-126365952D01*
X154379643Y-126365952D02*
X154332024Y-126318333D01*
X154332024Y-126318333D02*
X154284405Y-126223095D01*
X154284405Y-126223095D02*
X154284405Y-126127857D01*
X154284405Y-126127857D02*
X154332024Y-126032619D01*
X154332024Y-126032619D02*
X154379643Y-125985000D01*
X154379643Y-125985000D02*
X154474881Y-125937380D01*
X154474881Y-125937380D02*
X154712976Y-125937380D01*
X154712976Y-125937380D02*
X154855833Y-125985000D01*
X155284405Y-126413571D02*
X155617738Y-126413571D01*
X155760595Y-126937380D02*
X155284405Y-126937380D01*
X155284405Y-126937380D02*
X155284405Y-125937380D01*
X155284405Y-125937380D02*
X155760595Y-125937380D01*
X156189167Y-126937380D02*
X156189167Y-125937380D01*
X156189167Y-125937380D02*
X156760595Y-126937380D01*
X156760595Y-126937380D02*
X156760595Y-125937380D01*
X157189167Y-126889761D02*
X157332024Y-126937380D01*
X157332024Y-126937380D02*
X157570119Y-126937380D01*
X157570119Y-126937380D02*
X157665357Y-126889761D01*
X157665357Y-126889761D02*
X157712976Y-126842142D01*
X157712976Y-126842142D02*
X157760595Y-126746904D01*
X157760595Y-126746904D02*
X157760595Y-126651666D01*
X157760595Y-126651666D02*
X157712976Y-126556428D01*
X157712976Y-126556428D02*
X157665357Y-126508809D01*
X157665357Y-126508809D02*
X157570119Y-126461190D01*
X157570119Y-126461190D02*
X157379643Y-126413571D01*
X157379643Y-126413571D02*
X157284405Y-126365952D01*
X157284405Y-126365952D02*
X157236786Y-126318333D01*
X157236786Y-126318333D02*
X157189167Y-126223095D01*
X157189167Y-126223095D02*
X157189167Y-126127857D01*
X157189167Y-126127857D02*
X157236786Y-126032619D01*
X157236786Y-126032619D02*
X157284405Y-125985000D01*
X157284405Y-125985000D02*
X157379643Y-125937380D01*
X157379643Y-125937380D02*
X157617738Y-125937380D01*
X157617738Y-125937380D02*
X157760595Y-125985000D01*
X155389880Y-121593333D02*
X156104166Y-121593333D01*
X156104166Y-121593333D02*
X156247023Y-121640952D01*
X156247023Y-121640952D02*
X156342261Y-121736190D01*
X156342261Y-121736190D02*
X156389880Y-121879047D01*
X156389880Y-121879047D02*
X156389880Y-121974285D01*
X156389880Y-120593333D02*
X156389880Y-121164761D01*
X156389880Y-120879047D02*
X155389880Y-120879047D01*
X155389880Y-120879047D02*
X155532738Y-120974285D01*
X155532738Y-120974285D02*
X155627976Y-121069523D01*
X155627976Y-121069523D02*
X155675595Y-121164761D01*
%TO.C,J2*%
X152131071Y-142262142D02*
X152083452Y-142309761D01*
X152083452Y-142309761D02*
X151940595Y-142357380D01*
X151940595Y-142357380D02*
X151845357Y-142357380D01*
X151845357Y-142357380D02*
X151702500Y-142309761D01*
X151702500Y-142309761D02*
X151607262Y-142214523D01*
X151607262Y-142214523D02*
X151559643Y-142119285D01*
X151559643Y-142119285D02*
X151512024Y-141928809D01*
X151512024Y-141928809D02*
X151512024Y-141785952D01*
X151512024Y-141785952D02*
X151559643Y-141595476D01*
X151559643Y-141595476D02*
X151607262Y-141500238D01*
X151607262Y-141500238D02*
X151702500Y-141405000D01*
X151702500Y-141405000D02*
X151845357Y-141357380D01*
X151845357Y-141357380D02*
X151940595Y-141357380D01*
X151940595Y-141357380D02*
X152083452Y-141405000D01*
X152083452Y-141405000D02*
X152131071Y-141452619D01*
X152559643Y-141357380D02*
X152559643Y-142166904D01*
X152559643Y-142166904D02*
X152607262Y-142262142D01*
X152607262Y-142262142D02*
X152654881Y-142309761D01*
X152654881Y-142309761D02*
X152750119Y-142357380D01*
X152750119Y-142357380D02*
X152940595Y-142357380D01*
X152940595Y-142357380D02*
X153035833Y-142309761D01*
X153035833Y-142309761D02*
X153083452Y-142262142D01*
X153083452Y-142262142D02*
X153131071Y-142166904D01*
X153131071Y-142166904D02*
X153131071Y-141357380D01*
X154178690Y-142357380D02*
X153845357Y-141881190D01*
X153607262Y-142357380D02*
X153607262Y-141357380D01*
X153607262Y-141357380D02*
X153988214Y-141357380D01*
X153988214Y-141357380D02*
X154083452Y-141405000D01*
X154083452Y-141405000D02*
X154131071Y-141452619D01*
X154131071Y-141452619D02*
X154178690Y-141547857D01*
X154178690Y-141547857D02*
X154178690Y-141690714D01*
X154178690Y-141690714D02*
X154131071Y-141785952D01*
X154131071Y-141785952D02*
X154083452Y-141833571D01*
X154083452Y-141833571D02*
X153988214Y-141881190D01*
X153988214Y-141881190D02*
X153607262Y-141881190D01*
X155178690Y-142357380D02*
X154845357Y-141881190D01*
X154607262Y-142357380D02*
X154607262Y-141357380D01*
X154607262Y-141357380D02*
X154988214Y-141357380D01*
X154988214Y-141357380D02*
X155083452Y-141405000D01*
X155083452Y-141405000D02*
X155131071Y-141452619D01*
X155131071Y-141452619D02*
X155178690Y-141547857D01*
X155178690Y-141547857D02*
X155178690Y-141690714D01*
X155178690Y-141690714D02*
X155131071Y-141785952D01*
X155131071Y-141785952D02*
X155083452Y-141833571D01*
X155083452Y-141833571D02*
X154988214Y-141881190D01*
X154988214Y-141881190D02*
X154607262Y-141881190D01*
X155607262Y-141833571D02*
X155940595Y-141833571D01*
X156083452Y-142357380D02*
X155607262Y-142357380D01*
X155607262Y-142357380D02*
X155607262Y-141357380D01*
X155607262Y-141357380D02*
X156083452Y-141357380D01*
X156512024Y-142357380D02*
X156512024Y-141357380D01*
X156512024Y-141357380D02*
X157083452Y-142357380D01*
X157083452Y-142357380D02*
X157083452Y-141357380D01*
X157416786Y-141357380D02*
X157988214Y-141357380D01*
X157702500Y-142357380D02*
X157702500Y-141357380D01*
X155414880Y-135553333D02*
X156129166Y-135553333D01*
X156129166Y-135553333D02*
X156272023Y-135600952D01*
X156272023Y-135600952D02*
X156367261Y-135696190D01*
X156367261Y-135696190D02*
X156414880Y-135839047D01*
X156414880Y-135839047D02*
X156414880Y-135934285D01*
X155510119Y-135124761D02*
X155462500Y-135077142D01*
X155462500Y-135077142D02*
X155414880Y-134981904D01*
X155414880Y-134981904D02*
X155414880Y-134743809D01*
X155414880Y-134743809D02*
X155462500Y-134648571D01*
X155462500Y-134648571D02*
X155510119Y-134600952D01*
X155510119Y-134600952D02*
X155605357Y-134553333D01*
X155605357Y-134553333D02*
X155700595Y-134553333D01*
X155700595Y-134553333D02*
X155843452Y-134600952D01*
X155843452Y-134600952D02*
X156414880Y-135172380D01*
X156414880Y-135172380D02*
X156414880Y-134553333D01*
%TO.C,U1*%
X140816548Y-73186380D02*
X140816548Y-72186380D01*
X140816548Y-72186380D02*
X141197500Y-72186380D01*
X141197500Y-72186380D02*
X141292738Y-72234000D01*
X141292738Y-72234000D02*
X141340357Y-72281619D01*
X141340357Y-72281619D02*
X141387976Y-72376857D01*
X141387976Y-72376857D02*
X141387976Y-72519714D01*
X141387976Y-72519714D02*
X141340357Y-72614952D01*
X141340357Y-72614952D02*
X141292738Y-72662571D01*
X141292738Y-72662571D02*
X141197500Y-72710190D01*
X141197500Y-72710190D02*
X140816548Y-72710190D01*
X141816548Y-73186380D02*
X141816548Y-72519714D01*
X141816548Y-72186380D02*
X141768929Y-72234000D01*
X141768929Y-72234000D02*
X141816548Y-72281619D01*
X141816548Y-72281619D02*
X141864167Y-72234000D01*
X141864167Y-72234000D02*
X141816548Y-72186380D01*
X141816548Y-72186380D02*
X141816548Y-72281619D01*
X142721309Y-73138761D02*
X142626071Y-73186380D01*
X142626071Y-73186380D02*
X142435595Y-73186380D01*
X142435595Y-73186380D02*
X142340357Y-73138761D01*
X142340357Y-73138761D02*
X142292738Y-73091142D01*
X142292738Y-73091142D02*
X142245119Y-72995904D01*
X142245119Y-72995904D02*
X142245119Y-72710190D01*
X142245119Y-72710190D02*
X142292738Y-72614952D01*
X142292738Y-72614952D02*
X142340357Y-72567333D01*
X142340357Y-72567333D02*
X142435595Y-72519714D01*
X142435595Y-72519714D02*
X142626071Y-72519714D01*
X142626071Y-72519714D02*
X142721309Y-72567333D01*
X143292738Y-73186380D02*
X143197500Y-73138761D01*
X143197500Y-73138761D02*
X143149881Y-73091142D01*
X143149881Y-73091142D02*
X143102262Y-72995904D01*
X143102262Y-72995904D02*
X143102262Y-72710190D01*
X143102262Y-72710190D02*
X143149881Y-72614952D01*
X143149881Y-72614952D02*
X143197500Y-72567333D01*
X143197500Y-72567333D02*
X143292738Y-72519714D01*
X143292738Y-72519714D02*
X143435595Y-72519714D01*
X143435595Y-72519714D02*
X143530833Y-72567333D01*
X143530833Y-72567333D02*
X143578452Y-72614952D01*
X143578452Y-72614952D02*
X143626071Y-72710190D01*
X143626071Y-72710190D02*
X143626071Y-72995904D01*
X143626071Y-72995904D02*
X143578452Y-73091142D01*
X143578452Y-73091142D02*
X143530833Y-73138761D01*
X143530833Y-73138761D02*
X143435595Y-73186380D01*
X143435595Y-73186380D02*
X143292738Y-73186380D01*
X141435595Y-70027380D02*
X141435595Y-70836904D01*
X141435595Y-70836904D02*
X141483214Y-70932142D01*
X141483214Y-70932142D02*
X141530833Y-70979761D01*
X141530833Y-70979761D02*
X141626071Y-71027380D01*
X141626071Y-71027380D02*
X141816547Y-71027380D01*
X141816547Y-71027380D02*
X141911785Y-70979761D01*
X141911785Y-70979761D02*
X141959404Y-70932142D01*
X141959404Y-70932142D02*
X142007023Y-70836904D01*
X142007023Y-70836904D02*
X142007023Y-70027380D01*
X143007023Y-71027380D02*
X142435595Y-71027380D01*
X142721309Y-71027380D02*
X142721309Y-70027380D01*
X142721309Y-70027380D02*
X142626071Y-70170238D01*
X142626071Y-70170238D02*
X142530833Y-70265476D01*
X142530833Y-70265476D02*
X142435595Y-70313095D01*
%TO.C,R1*%
X139652976Y-103067380D02*
X140272023Y-103067380D01*
X140272023Y-103067380D02*
X139938690Y-103448333D01*
X139938690Y-103448333D02*
X140081547Y-103448333D01*
X140081547Y-103448333D02*
X140176785Y-103495952D01*
X140176785Y-103495952D02*
X140224404Y-103543571D01*
X140224404Y-103543571D02*
X140272023Y-103638809D01*
X140272023Y-103638809D02*
X140272023Y-103876904D01*
X140272023Y-103876904D02*
X140224404Y-103972142D01*
X140224404Y-103972142D02*
X140176785Y-104019761D01*
X140176785Y-104019761D02*
X140081547Y-104067380D01*
X140081547Y-104067380D02*
X139795833Y-104067380D01*
X139795833Y-104067380D02*
X139700595Y-104019761D01*
X139700595Y-104019761D02*
X139652976Y-103972142D01*
X140891071Y-103067380D02*
X140986309Y-103067380D01*
X140986309Y-103067380D02*
X141081547Y-103115000D01*
X141081547Y-103115000D02*
X141129166Y-103162619D01*
X141129166Y-103162619D02*
X141176785Y-103257857D01*
X141176785Y-103257857D02*
X141224404Y-103448333D01*
X141224404Y-103448333D02*
X141224404Y-103686428D01*
X141224404Y-103686428D02*
X141176785Y-103876904D01*
X141176785Y-103876904D02*
X141129166Y-103972142D01*
X141129166Y-103972142D02*
X141081547Y-104019761D01*
X141081547Y-104019761D02*
X140986309Y-104067380D01*
X140986309Y-104067380D02*
X140891071Y-104067380D01*
X140891071Y-104067380D02*
X140795833Y-104019761D01*
X140795833Y-104019761D02*
X140748214Y-103972142D01*
X140748214Y-103972142D02*
X140700595Y-103876904D01*
X140700595Y-103876904D02*
X140652976Y-103686428D01*
X140652976Y-103686428D02*
X140652976Y-103448333D01*
X140652976Y-103448333D02*
X140700595Y-103257857D01*
X140700595Y-103257857D02*
X140748214Y-103162619D01*
X140748214Y-103162619D02*
X140795833Y-103115000D01*
X140795833Y-103115000D02*
X140891071Y-103067380D01*
D11*
X140329167Y-102173904D02*
X140062500Y-101792952D01*
X139872024Y-102173904D02*
X139872024Y-101373904D01*
X139872024Y-101373904D02*
X140176786Y-101373904D01*
X140176786Y-101373904D02*
X140252976Y-101412000D01*
X140252976Y-101412000D02*
X140291071Y-101450095D01*
X140291071Y-101450095D02*
X140329167Y-101526285D01*
X140329167Y-101526285D02*
X140329167Y-101640571D01*
X140329167Y-101640571D02*
X140291071Y-101716761D01*
X140291071Y-101716761D02*
X140252976Y-101754857D01*
X140252976Y-101754857D02*
X140176786Y-101792952D01*
X140176786Y-101792952D02*
X139872024Y-101792952D01*
X141091071Y-102173904D02*
X140633928Y-102173904D01*
X140862500Y-102173904D02*
X140862500Y-101373904D01*
X140862500Y-101373904D02*
X140786309Y-101488190D01*
X140786309Y-101488190D02*
X140710119Y-101564380D01*
X140710119Y-101564380D02*
X140633928Y-101602476D01*
D10*
%TO.C,J4*%
X137979880Y-158980476D02*
X137979880Y-159456666D01*
X137979880Y-159456666D02*
X136979880Y-159456666D01*
X137884642Y-158075714D02*
X137932261Y-158123333D01*
X137932261Y-158123333D02*
X137979880Y-158266190D01*
X137979880Y-158266190D02*
X137979880Y-158361428D01*
X137979880Y-158361428D02*
X137932261Y-158504285D01*
X137932261Y-158504285D02*
X137837023Y-158599523D01*
X137837023Y-158599523D02*
X137741785Y-158647142D01*
X137741785Y-158647142D02*
X137551309Y-158694761D01*
X137551309Y-158694761D02*
X137408452Y-158694761D01*
X137408452Y-158694761D02*
X137217976Y-158647142D01*
X137217976Y-158647142D02*
X137122738Y-158599523D01*
X137122738Y-158599523D02*
X137027500Y-158504285D01*
X137027500Y-158504285D02*
X136979880Y-158361428D01*
X136979880Y-158361428D02*
X136979880Y-158266190D01*
X136979880Y-158266190D02*
X137027500Y-158123333D01*
X137027500Y-158123333D02*
X137075119Y-158075714D01*
X137979880Y-157647142D02*
X136979880Y-157647142D01*
X136979880Y-157647142D02*
X136979880Y-157409047D01*
X136979880Y-157409047D02*
X137027500Y-157266190D01*
X137027500Y-157266190D02*
X137122738Y-157170952D01*
X137122738Y-157170952D02*
X137217976Y-157123333D01*
X137217976Y-157123333D02*
X137408452Y-157075714D01*
X137408452Y-157075714D02*
X137551309Y-157075714D01*
X137551309Y-157075714D02*
X137741785Y-157123333D01*
X137741785Y-157123333D02*
X137837023Y-157170952D01*
X137837023Y-157170952D02*
X137932261Y-157266190D01*
X137932261Y-157266190D02*
X137979880Y-157409047D01*
X137979880Y-157409047D02*
X137979880Y-157647142D01*
X143859166Y-157657380D02*
X143859166Y-158371666D01*
X143859166Y-158371666D02*
X143811547Y-158514523D01*
X143811547Y-158514523D02*
X143716309Y-158609761D01*
X143716309Y-158609761D02*
X143573452Y-158657380D01*
X143573452Y-158657380D02*
X143478214Y-158657380D01*
X144763928Y-157990714D02*
X144763928Y-158657380D01*
X144525833Y-157609761D02*
X144287738Y-158324047D01*
X144287738Y-158324047D02*
X144906785Y-158324047D01*
%TO.C,R2*%
X144324881Y-103177380D02*
X144991547Y-103177380D01*
X144991547Y-103177380D02*
X144562976Y-104177380D01*
X145372500Y-104082142D02*
X145420119Y-104129761D01*
X145420119Y-104129761D02*
X145372500Y-104177380D01*
X145372500Y-104177380D02*
X145324881Y-104129761D01*
X145324881Y-104129761D02*
X145372500Y-104082142D01*
X145372500Y-104082142D02*
X145372500Y-104177380D01*
X146324880Y-103177380D02*
X145848690Y-103177380D01*
X145848690Y-103177380D02*
X145801071Y-103653571D01*
X145801071Y-103653571D02*
X145848690Y-103605952D01*
X145848690Y-103605952D02*
X145943928Y-103558333D01*
X145943928Y-103558333D02*
X146182023Y-103558333D01*
X146182023Y-103558333D02*
X146277261Y-103605952D01*
X146277261Y-103605952D02*
X146324880Y-103653571D01*
X146324880Y-103653571D02*
X146372499Y-103748809D01*
X146372499Y-103748809D02*
X146372499Y-103986904D01*
X146372499Y-103986904D02*
X146324880Y-104082142D01*
X146324880Y-104082142D02*
X146277261Y-104129761D01*
X146277261Y-104129761D02*
X146182023Y-104177380D01*
X146182023Y-104177380D02*
X145943928Y-104177380D01*
X145943928Y-104177380D02*
X145848690Y-104129761D01*
X145848690Y-104129761D02*
X145801071Y-104082142D01*
D11*
X145419167Y-102413904D02*
X145152500Y-102032952D01*
X144962024Y-102413904D02*
X144962024Y-101613904D01*
X144962024Y-101613904D02*
X145266786Y-101613904D01*
X145266786Y-101613904D02*
X145342976Y-101652000D01*
X145342976Y-101652000D02*
X145381071Y-101690095D01*
X145381071Y-101690095D02*
X145419167Y-101766285D01*
X145419167Y-101766285D02*
X145419167Y-101880571D01*
X145419167Y-101880571D02*
X145381071Y-101956761D01*
X145381071Y-101956761D02*
X145342976Y-101994857D01*
X145342976Y-101994857D02*
X145266786Y-102032952D01*
X145266786Y-102032952D02*
X144962024Y-102032952D01*
X145723928Y-101690095D02*
X145762024Y-101652000D01*
X145762024Y-101652000D02*
X145838214Y-101613904D01*
X145838214Y-101613904D02*
X146028690Y-101613904D01*
X146028690Y-101613904D02*
X146104881Y-101652000D01*
X146104881Y-101652000D02*
X146142976Y-101690095D01*
X146142976Y-101690095D02*
X146181071Y-101766285D01*
X146181071Y-101766285D02*
X146181071Y-101842476D01*
X146181071Y-101842476D02*
X146142976Y-101956761D01*
X146142976Y-101956761D02*
X145685833Y-102413904D01*
X145685833Y-102413904D02*
X146181071Y-102413904D01*
D10*
%TO.C,J3*%
X132249880Y-114578570D02*
X131249880Y-114578570D01*
X131249880Y-114578570D02*
X131249880Y-114340475D01*
X131249880Y-114340475D02*
X131297500Y-114197618D01*
X131297500Y-114197618D02*
X131392738Y-114102380D01*
X131392738Y-114102380D02*
X131487976Y-114054761D01*
X131487976Y-114054761D02*
X131678452Y-114007142D01*
X131678452Y-114007142D02*
X131821309Y-114007142D01*
X131821309Y-114007142D02*
X132011785Y-114054761D01*
X132011785Y-114054761D02*
X132107023Y-114102380D01*
X132107023Y-114102380D02*
X132202261Y-114197618D01*
X132202261Y-114197618D02*
X132249880Y-114340475D01*
X132249880Y-114340475D02*
X132249880Y-114578570D01*
X132249880Y-113578570D02*
X131249880Y-113578570D01*
X132249880Y-112530952D02*
X131773690Y-112864285D01*
X132249880Y-113102380D02*
X131249880Y-113102380D01*
X131249880Y-113102380D02*
X131249880Y-112721428D01*
X131249880Y-112721428D02*
X131297500Y-112626190D01*
X131297500Y-112626190D02*
X131345119Y-112578571D01*
X131345119Y-112578571D02*
X131440357Y-112530952D01*
X131440357Y-112530952D02*
X131583214Y-112530952D01*
X131583214Y-112530952D02*
X131678452Y-112578571D01*
X131678452Y-112578571D02*
X131726071Y-112626190D01*
X131726071Y-112626190D02*
X131773690Y-112721428D01*
X131773690Y-112721428D02*
X131773690Y-113102380D01*
X131726071Y-112102380D02*
X131726071Y-111769047D01*
X132249880Y-111626190D02*
X132249880Y-112102380D01*
X132249880Y-112102380D02*
X131249880Y-112102380D01*
X131249880Y-112102380D02*
X131249880Y-111626190D01*
X132154642Y-110626190D02*
X132202261Y-110673809D01*
X132202261Y-110673809D02*
X132249880Y-110816666D01*
X132249880Y-110816666D02*
X132249880Y-110911904D01*
X132249880Y-110911904D02*
X132202261Y-111054761D01*
X132202261Y-111054761D02*
X132107023Y-111149999D01*
X132107023Y-111149999D02*
X132011785Y-111197618D01*
X132011785Y-111197618D02*
X131821309Y-111245237D01*
X131821309Y-111245237D02*
X131678452Y-111245237D01*
X131678452Y-111245237D02*
X131487976Y-111197618D01*
X131487976Y-111197618D02*
X131392738Y-111149999D01*
X131392738Y-111149999D02*
X131297500Y-111054761D01*
X131297500Y-111054761D02*
X131249880Y-110911904D01*
X131249880Y-110911904D02*
X131249880Y-110816666D01*
X131249880Y-110816666D02*
X131297500Y-110673809D01*
X131297500Y-110673809D02*
X131345119Y-110626190D01*
X131249880Y-110340475D02*
X131249880Y-109769047D01*
X132249880Y-110054761D02*
X131249880Y-110054761D01*
X132249880Y-108835713D02*
X131249880Y-108835713D01*
X132249880Y-108359523D02*
X131249880Y-108359523D01*
X131249880Y-108359523D02*
X132249880Y-107788095D01*
X132249880Y-107788095D02*
X131249880Y-107788095D01*
X131154642Y-107645238D02*
X132440357Y-106788095D01*
X128389880Y-111453333D02*
X129104166Y-111453333D01*
X129104166Y-111453333D02*
X129247023Y-111500952D01*
X129247023Y-111500952D02*
X129342261Y-111596190D01*
X129342261Y-111596190D02*
X129389880Y-111739047D01*
X129389880Y-111739047D02*
X129389880Y-111834285D01*
X128389880Y-111072380D02*
X128389880Y-110453333D01*
X128389880Y-110453333D02*
X128770833Y-110786666D01*
X128770833Y-110786666D02*
X128770833Y-110643809D01*
X128770833Y-110643809D02*
X128818452Y-110548571D01*
X128818452Y-110548571D02*
X128866071Y-110500952D01*
X128866071Y-110500952D02*
X128961309Y-110453333D01*
X128961309Y-110453333D02*
X129199404Y-110453333D01*
X129199404Y-110453333D02*
X129294642Y-110500952D01*
X129294642Y-110500952D02*
X129342261Y-110548571D01*
X129342261Y-110548571D02*
X129389880Y-110643809D01*
X129389880Y-110643809D02*
X129389880Y-110929523D01*
X129389880Y-110929523D02*
X129342261Y-111024761D01*
X129342261Y-111024761D02*
X129294642Y-111072380D01*
D12*
%TO.C,J1*%
X154752500Y-117450000D02*
X156657500Y-117450000D01*
X154752500Y-125070000D02*
X154752500Y-117450000D01*
X156657500Y-117450000D02*
X157292500Y-118085000D01*
X157292500Y-118085000D02*
X157292500Y-125070000D01*
X157292500Y-125070000D02*
X154752500Y-125070000D01*
%TO.C,J2*%
X154777500Y-130140000D02*
X156682500Y-130140000D01*
X154777500Y-140300000D02*
X154777500Y-130140000D01*
X156682500Y-130140000D02*
X157317500Y-130775000D01*
X157317500Y-130775000D02*
X157317500Y-140300000D01*
X157317500Y-140300000D02*
X154777500Y-140300000D01*
D11*
%TO.C,U1*%
X131697500Y-45160000D02*
X152697500Y-45160000D01*
X131697500Y-46460000D02*
X132997500Y-45160000D01*
X131697500Y-96160000D02*
X131697500Y-45160000D01*
X152697500Y-45160000D02*
X152697500Y-96160000D01*
X152697500Y-96160000D02*
X131697500Y-96160000D01*
D12*
%TO.C,R1*%
X138862500Y-101080000D02*
X142062500Y-101080000D01*
X138862500Y-102680000D02*
X138862500Y-101080000D01*
X142062500Y-101080000D02*
X142062500Y-102680000D01*
X142062500Y-102680000D02*
X138862500Y-102680000D01*
%TO.C,J4*%
X149272500Y-157020000D02*
X149272500Y-158925000D01*
X139112500Y-157020000D02*
X149272500Y-157020000D01*
X149272500Y-158925000D02*
X148637500Y-159560000D01*
X148637500Y-159560000D02*
X139112500Y-159560000D01*
X139112500Y-159560000D02*
X139112500Y-157020000D01*
%TO.C,R2*%
X143772500Y-101190000D02*
X146972500Y-101190000D01*
X143772500Y-102790000D02*
X143772500Y-101190000D01*
X146972500Y-101190000D02*
X146972500Y-102790000D01*
X146972500Y-102790000D02*
X143772500Y-102790000D01*
%TO.C,J3*%
X127752500Y-108580000D02*
X129657500Y-108580000D01*
X127752500Y-113660000D02*
X127752500Y-108580000D01*
X129657500Y-108580000D02*
X130292500Y-109215000D01*
X130292500Y-109215000D02*
X130292500Y-113660000D01*
X130292500Y-113660000D02*
X127752500Y-113660000D01*
%TD*%
M02*
