%TF.GenerationSoftware,KiCad,Pcbnew,(7.0.0)*%
%TF.CreationDate,2023-05-30T18:27:12+05:30*%
%TF.ProjectId,voltmeter-pcb,766f6c74-6d65-4746-9572-2d7063622e6b,rev?*%
%TF.SameCoordinates,Original*%
%TF.FileFunction,Soldermask,Bot*%
%TF.FilePolarity,Negative*%
%FSLAX46Y46*%
G04 Gerber Fmt 4.6, Leading zero omitted, Abs format (unit mm)*
G04 Created by KiCad (PCBNEW (7.0.0)) date 2023-05-30 18:27:12*
%MOMM*%
%LPD*%
G01*
G04 APERTURE LIST*
%ADD10R,1.700000X1.700000*%
%ADD11O,1.700000X1.700000*%
%ADD12O,1.800000X1.800000*%
%ADD13O,1.500000X1.500000*%
G04 APERTURE END LIST*
D10*
%TO.C,J1*%
X156022499Y-118719999D03*
D11*
X156022499Y-121259999D03*
X156022499Y-123799999D03*
%TD*%
D10*
%TO.C,J2*%
X156047499Y-131409999D03*
D11*
X156047499Y-133949999D03*
X156047499Y-136489999D03*
X156047499Y-139029999D03*
%TD*%
D12*
%TO.C,U1*%
X139472499Y-46659999D03*
D13*
X139772499Y-49689999D03*
X144622499Y-49689999D03*
D12*
X144922499Y-46659999D03*
D11*
X133307499Y-46529999D03*
X133307499Y-49069999D03*
D10*
X133307499Y-51609999D03*
D11*
X133307499Y-54149999D03*
X133307499Y-56689999D03*
X133307499Y-59229999D03*
X133307499Y-61769999D03*
D10*
X133307499Y-64309999D03*
D11*
X133307499Y-66849999D03*
X133307499Y-69389999D03*
X133307499Y-71929999D03*
X133307499Y-74469999D03*
D10*
X133307499Y-77009999D03*
D11*
X133307499Y-79549999D03*
X133307499Y-82089999D03*
X133307499Y-84629999D03*
X133307499Y-87169999D03*
D10*
X133307499Y-89709999D03*
D11*
X133307499Y-92249999D03*
X133307499Y-94789999D03*
X151087499Y-94789999D03*
X151087499Y-92249999D03*
D10*
X151087499Y-89709999D03*
D11*
X151087499Y-87169999D03*
X151087499Y-84629999D03*
X151087499Y-82089999D03*
X151087499Y-79549999D03*
D10*
X151087499Y-77009999D03*
D11*
X151087499Y-74469999D03*
X151087499Y-71929999D03*
X151087499Y-69389999D03*
X151087499Y-66849999D03*
D10*
X151087499Y-64309999D03*
D11*
X151087499Y-61769999D03*
X151087499Y-59229999D03*
X151087499Y-56689999D03*
X151087499Y-54149999D03*
D10*
X151087499Y-51609999D03*
D11*
X151087499Y-49069999D03*
X151087499Y-46529999D03*
X139657499Y-94559999D03*
D10*
X142197499Y-94559999D03*
D11*
X144737499Y-94559999D03*
%TD*%
D10*
%TO.C,J4*%
X148002499Y-158289999D03*
D11*
X145462499Y-158289999D03*
X142922499Y-158289999D03*
X140382499Y-158289999D03*
%TD*%
D10*
%TO.C,J3*%
X129022499Y-109849999D03*
D11*
X129022499Y-112389999D03*
%TD*%
M02*
