%TF.GenerationSoftware,KiCad,Pcbnew,(7.0.0)*%
%TF.CreationDate,2023-05-30T18:27:12+05:30*%
%TF.ProjectId,voltmeter-pcb,766f6c74-6d65-4746-9572-2d7063622e6b,rev?*%
%TF.SameCoordinates,Original*%
%TF.FileFunction,Other,Comment*%
%FSLAX46Y46*%
G04 Gerber Fmt 4.6, Leading zero omitted, Abs format (unit mm)*
G04 Created by KiCad (PCBNEW (7.0.0)) date 2023-05-30 18:27:12*
%MOMM*%
%LPD*%
G01*
G04 APERTURE LIST*
%ADD10C,0.150000*%
G04 APERTURE END LIST*
D10*
%TO.C,U1*%
X128702259Y-40732142D02*
X128654640Y-40779761D01*
X128654640Y-40779761D02*
X128511783Y-40827380D01*
X128511783Y-40827380D02*
X128416545Y-40827380D01*
X128416545Y-40827380D02*
X128273688Y-40779761D01*
X128273688Y-40779761D02*
X128178450Y-40684523D01*
X128178450Y-40684523D02*
X128130831Y-40589285D01*
X128130831Y-40589285D02*
X128083212Y-40398809D01*
X128083212Y-40398809D02*
X128083212Y-40255952D01*
X128083212Y-40255952D02*
X128130831Y-40065476D01*
X128130831Y-40065476D02*
X128178450Y-39970238D01*
X128178450Y-39970238D02*
X128273688Y-39875000D01*
X128273688Y-39875000D02*
X128416545Y-39827380D01*
X128416545Y-39827380D02*
X128511783Y-39827380D01*
X128511783Y-39827380D02*
X128654640Y-39875000D01*
X128654640Y-39875000D02*
X128702259Y-39922619D01*
X129273688Y-40827380D02*
X129178450Y-40779761D01*
X129178450Y-40779761D02*
X129130831Y-40732142D01*
X129130831Y-40732142D02*
X129083212Y-40636904D01*
X129083212Y-40636904D02*
X129083212Y-40351190D01*
X129083212Y-40351190D02*
X129130831Y-40255952D01*
X129130831Y-40255952D02*
X129178450Y-40208333D01*
X129178450Y-40208333D02*
X129273688Y-40160714D01*
X129273688Y-40160714D02*
X129416545Y-40160714D01*
X129416545Y-40160714D02*
X129511783Y-40208333D01*
X129511783Y-40208333D02*
X129559402Y-40255952D01*
X129559402Y-40255952D02*
X129607021Y-40351190D01*
X129607021Y-40351190D02*
X129607021Y-40636904D01*
X129607021Y-40636904D02*
X129559402Y-40732142D01*
X129559402Y-40732142D02*
X129511783Y-40779761D01*
X129511783Y-40779761D02*
X129416545Y-40827380D01*
X129416545Y-40827380D02*
X129273688Y-40827380D01*
X130035593Y-40160714D02*
X130035593Y-41160714D01*
X130035593Y-40208333D02*
X130130831Y-40160714D01*
X130130831Y-40160714D02*
X130321307Y-40160714D01*
X130321307Y-40160714D02*
X130416545Y-40208333D01*
X130416545Y-40208333D02*
X130464164Y-40255952D01*
X130464164Y-40255952D02*
X130511783Y-40351190D01*
X130511783Y-40351190D02*
X130511783Y-40636904D01*
X130511783Y-40636904D02*
X130464164Y-40732142D01*
X130464164Y-40732142D02*
X130416545Y-40779761D01*
X130416545Y-40779761D02*
X130321307Y-40827380D01*
X130321307Y-40827380D02*
X130130831Y-40827380D01*
X130130831Y-40827380D02*
X130035593Y-40779761D01*
X130940355Y-40160714D02*
X130940355Y-41160714D01*
X130940355Y-40208333D02*
X131035593Y-40160714D01*
X131035593Y-40160714D02*
X131226069Y-40160714D01*
X131226069Y-40160714D02*
X131321307Y-40208333D01*
X131321307Y-40208333D02*
X131368926Y-40255952D01*
X131368926Y-40255952D02*
X131416545Y-40351190D01*
X131416545Y-40351190D02*
X131416545Y-40636904D01*
X131416545Y-40636904D02*
X131368926Y-40732142D01*
X131368926Y-40732142D02*
X131321307Y-40779761D01*
X131321307Y-40779761D02*
X131226069Y-40827380D01*
X131226069Y-40827380D02*
X131035593Y-40827380D01*
X131035593Y-40827380D02*
X130940355Y-40779761D01*
X132226069Y-40779761D02*
X132130831Y-40827380D01*
X132130831Y-40827380D02*
X131940355Y-40827380D01*
X131940355Y-40827380D02*
X131845117Y-40779761D01*
X131845117Y-40779761D02*
X131797498Y-40684523D01*
X131797498Y-40684523D02*
X131797498Y-40303571D01*
X131797498Y-40303571D02*
X131845117Y-40208333D01*
X131845117Y-40208333D02*
X131940355Y-40160714D01*
X131940355Y-40160714D02*
X132130831Y-40160714D01*
X132130831Y-40160714D02*
X132226069Y-40208333D01*
X132226069Y-40208333D02*
X132273688Y-40303571D01*
X132273688Y-40303571D02*
X132273688Y-40398809D01*
X132273688Y-40398809D02*
X131797498Y-40494047D01*
X132702260Y-40827380D02*
X132702260Y-40160714D01*
X132702260Y-40351190D02*
X132749879Y-40255952D01*
X132749879Y-40255952D02*
X132797498Y-40208333D01*
X132797498Y-40208333D02*
X132892736Y-40160714D01*
X132892736Y-40160714D02*
X132987974Y-40160714D01*
X133921308Y-40827380D02*
X133921308Y-39827380D01*
X134492736Y-40827380D02*
X134064165Y-40255952D01*
X134492736Y-39827380D02*
X133921308Y-40398809D01*
X135302260Y-40779761D02*
X135207022Y-40827380D01*
X135207022Y-40827380D02*
X135016546Y-40827380D01*
X135016546Y-40827380D02*
X134921308Y-40779761D01*
X134921308Y-40779761D02*
X134873689Y-40684523D01*
X134873689Y-40684523D02*
X134873689Y-40303571D01*
X134873689Y-40303571D02*
X134921308Y-40208333D01*
X134921308Y-40208333D02*
X135016546Y-40160714D01*
X135016546Y-40160714D02*
X135207022Y-40160714D01*
X135207022Y-40160714D02*
X135302260Y-40208333D01*
X135302260Y-40208333D02*
X135349879Y-40303571D01*
X135349879Y-40303571D02*
X135349879Y-40398809D01*
X135349879Y-40398809D02*
X134873689Y-40494047D01*
X136159403Y-40779761D02*
X136064165Y-40827380D01*
X136064165Y-40827380D02*
X135873689Y-40827380D01*
X135873689Y-40827380D02*
X135778451Y-40779761D01*
X135778451Y-40779761D02*
X135730832Y-40684523D01*
X135730832Y-40684523D02*
X135730832Y-40303571D01*
X135730832Y-40303571D02*
X135778451Y-40208333D01*
X135778451Y-40208333D02*
X135873689Y-40160714D01*
X135873689Y-40160714D02*
X136064165Y-40160714D01*
X136064165Y-40160714D02*
X136159403Y-40208333D01*
X136159403Y-40208333D02*
X136207022Y-40303571D01*
X136207022Y-40303571D02*
X136207022Y-40398809D01*
X136207022Y-40398809D02*
X135730832Y-40494047D01*
X136635594Y-40160714D02*
X136635594Y-41160714D01*
X136635594Y-40208333D02*
X136730832Y-40160714D01*
X136730832Y-40160714D02*
X136921308Y-40160714D01*
X136921308Y-40160714D02*
X137016546Y-40208333D01*
X137016546Y-40208333D02*
X137064165Y-40255952D01*
X137064165Y-40255952D02*
X137111784Y-40351190D01*
X137111784Y-40351190D02*
X137111784Y-40636904D01*
X137111784Y-40636904D02*
X137064165Y-40732142D01*
X137064165Y-40732142D02*
X137016546Y-40779761D01*
X137016546Y-40779761D02*
X136921308Y-40827380D01*
X136921308Y-40827380D02*
X136730832Y-40827380D01*
X136730832Y-40827380D02*
X136635594Y-40779761D01*
X137683213Y-40827380D02*
X137587975Y-40779761D01*
X137587975Y-40779761D02*
X137540356Y-40732142D01*
X137540356Y-40732142D02*
X137492737Y-40636904D01*
X137492737Y-40636904D02*
X137492737Y-40351190D01*
X137492737Y-40351190D02*
X137540356Y-40255952D01*
X137540356Y-40255952D02*
X137587975Y-40208333D01*
X137587975Y-40208333D02*
X137683213Y-40160714D01*
X137683213Y-40160714D02*
X137826070Y-40160714D01*
X137826070Y-40160714D02*
X137921308Y-40208333D01*
X137921308Y-40208333D02*
X137968927Y-40255952D01*
X137968927Y-40255952D02*
X138016546Y-40351190D01*
X138016546Y-40351190D02*
X138016546Y-40636904D01*
X138016546Y-40636904D02*
X137968927Y-40732142D01*
X137968927Y-40732142D02*
X137921308Y-40779761D01*
X137921308Y-40779761D02*
X137826070Y-40827380D01*
X137826070Y-40827380D02*
X137683213Y-40827380D01*
X138873689Y-40160714D02*
X138873689Y-40827380D01*
X138445118Y-40160714D02*
X138445118Y-40684523D01*
X138445118Y-40684523D02*
X138492737Y-40779761D01*
X138492737Y-40779761D02*
X138587975Y-40827380D01*
X138587975Y-40827380D02*
X138730832Y-40827380D01*
X138730832Y-40827380D02*
X138826070Y-40779761D01*
X138826070Y-40779761D02*
X138873689Y-40732142D01*
X139207023Y-40160714D02*
X139587975Y-40160714D01*
X139349880Y-39827380D02*
X139349880Y-40684523D01*
X139349880Y-40684523D02*
X139397499Y-40779761D01*
X139397499Y-40779761D02*
X139492737Y-40827380D01*
X139492737Y-40827380D02*
X139587975Y-40827380D01*
X139873690Y-40779761D02*
X139968928Y-40827380D01*
X139968928Y-40827380D02*
X140159404Y-40827380D01*
X140159404Y-40827380D02*
X140254642Y-40779761D01*
X140254642Y-40779761D02*
X140302261Y-40684523D01*
X140302261Y-40684523D02*
X140302261Y-40636904D01*
X140302261Y-40636904D02*
X140254642Y-40541666D01*
X140254642Y-40541666D02*
X140159404Y-40494047D01*
X140159404Y-40494047D02*
X140016547Y-40494047D01*
X140016547Y-40494047D02*
X139921309Y-40446428D01*
X139921309Y-40446428D02*
X139873690Y-40351190D01*
X139873690Y-40351190D02*
X139873690Y-40303571D01*
X139873690Y-40303571D02*
X139921309Y-40208333D01*
X139921309Y-40208333D02*
X140016547Y-40160714D01*
X140016547Y-40160714D02*
X140159404Y-40160714D01*
X140159404Y-40160714D02*
X140254642Y-40208333D01*
X141283214Y-40779761D02*
X141378452Y-40827380D01*
X141378452Y-40827380D02*
X141568928Y-40827380D01*
X141568928Y-40827380D02*
X141664166Y-40779761D01*
X141664166Y-40779761D02*
X141711785Y-40684523D01*
X141711785Y-40684523D02*
X141711785Y-40636904D01*
X141711785Y-40636904D02*
X141664166Y-40541666D01*
X141664166Y-40541666D02*
X141568928Y-40494047D01*
X141568928Y-40494047D02*
X141426071Y-40494047D01*
X141426071Y-40494047D02*
X141330833Y-40446428D01*
X141330833Y-40446428D02*
X141283214Y-40351190D01*
X141283214Y-40351190D02*
X141283214Y-40303571D01*
X141283214Y-40303571D02*
X141330833Y-40208333D01*
X141330833Y-40208333D02*
X141426071Y-40160714D01*
X141426071Y-40160714D02*
X141568928Y-40160714D01*
X141568928Y-40160714D02*
X141664166Y-40208333D01*
X142140357Y-40827380D02*
X142140357Y-39827380D01*
X142568928Y-40827380D02*
X142568928Y-40303571D01*
X142568928Y-40303571D02*
X142521309Y-40208333D01*
X142521309Y-40208333D02*
X142426071Y-40160714D01*
X142426071Y-40160714D02*
X142283214Y-40160714D01*
X142283214Y-40160714D02*
X142187976Y-40208333D01*
X142187976Y-40208333D02*
X142140357Y-40255952D01*
X143187976Y-40827380D02*
X143092738Y-40779761D01*
X143092738Y-40779761D02*
X143045119Y-40732142D01*
X143045119Y-40732142D02*
X142997500Y-40636904D01*
X142997500Y-40636904D02*
X142997500Y-40351190D01*
X142997500Y-40351190D02*
X143045119Y-40255952D01*
X143045119Y-40255952D02*
X143092738Y-40208333D01*
X143092738Y-40208333D02*
X143187976Y-40160714D01*
X143187976Y-40160714D02*
X143330833Y-40160714D01*
X143330833Y-40160714D02*
X143426071Y-40208333D01*
X143426071Y-40208333D02*
X143473690Y-40255952D01*
X143473690Y-40255952D02*
X143521309Y-40351190D01*
X143521309Y-40351190D02*
X143521309Y-40636904D01*
X143521309Y-40636904D02*
X143473690Y-40732142D01*
X143473690Y-40732142D02*
X143426071Y-40779761D01*
X143426071Y-40779761D02*
X143330833Y-40827380D01*
X143330833Y-40827380D02*
X143187976Y-40827380D01*
X143854643Y-40160714D02*
X144045119Y-40827380D01*
X144045119Y-40827380D02*
X144235595Y-40351190D01*
X144235595Y-40351190D02*
X144426071Y-40827380D01*
X144426071Y-40827380D02*
X144616547Y-40160714D01*
X144997500Y-40160714D02*
X144997500Y-40827380D01*
X144997500Y-40255952D02*
X145045119Y-40208333D01*
X145045119Y-40208333D02*
X145140357Y-40160714D01*
X145140357Y-40160714D02*
X145283214Y-40160714D01*
X145283214Y-40160714D02*
X145378452Y-40208333D01*
X145378452Y-40208333D02*
X145426071Y-40303571D01*
X145426071Y-40303571D02*
X145426071Y-40827380D01*
X146645119Y-40827380D02*
X146549881Y-40779761D01*
X146549881Y-40779761D02*
X146502262Y-40732142D01*
X146502262Y-40732142D02*
X146454643Y-40636904D01*
X146454643Y-40636904D02*
X146454643Y-40351190D01*
X146454643Y-40351190D02*
X146502262Y-40255952D01*
X146502262Y-40255952D02*
X146549881Y-40208333D01*
X146549881Y-40208333D02*
X146645119Y-40160714D01*
X146645119Y-40160714D02*
X146787976Y-40160714D01*
X146787976Y-40160714D02*
X146883214Y-40208333D01*
X146883214Y-40208333D02*
X146930833Y-40255952D01*
X146930833Y-40255952D02*
X146978452Y-40351190D01*
X146978452Y-40351190D02*
X146978452Y-40636904D01*
X146978452Y-40636904D02*
X146930833Y-40732142D01*
X146930833Y-40732142D02*
X146883214Y-40779761D01*
X146883214Y-40779761D02*
X146787976Y-40827380D01*
X146787976Y-40827380D02*
X146645119Y-40827380D01*
X147407024Y-40160714D02*
X147407024Y-40827380D01*
X147407024Y-40255952D02*
X147454643Y-40208333D01*
X147454643Y-40208333D02*
X147549881Y-40160714D01*
X147549881Y-40160714D02*
X147692738Y-40160714D01*
X147692738Y-40160714D02*
X147787976Y-40208333D01*
X147787976Y-40208333D02*
X147835595Y-40303571D01*
X147835595Y-40303571D02*
X147835595Y-40827380D01*
X148911786Y-40827380D02*
X148911786Y-39827380D01*
X148911786Y-39827380D02*
X149149881Y-39827380D01*
X149149881Y-39827380D02*
X149292738Y-39875000D01*
X149292738Y-39875000D02*
X149387976Y-39970238D01*
X149387976Y-39970238D02*
X149435595Y-40065476D01*
X149435595Y-40065476D02*
X149483214Y-40255952D01*
X149483214Y-40255952D02*
X149483214Y-40398809D01*
X149483214Y-40398809D02*
X149435595Y-40589285D01*
X149435595Y-40589285D02*
X149387976Y-40684523D01*
X149387976Y-40684523D02*
X149292738Y-40779761D01*
X149292738Y-40779761D02*
X149149881Y-40827380D01*
X149149881Y-40827380D02*
X148911786Y-40827380D01*
X149816548Y-40160714D02*
X150007024Y-40827380D01*
X150007024Y-40827380D02*
X150197500Y-40351190D01*
X150197500Y-40351190D02*
X150387976Y-40827380D01*
X150387976Y-40827380D02*
X150578452Y-40160714D01*
X151387976Y-40160714D02*
X151387976Y-40970238D01*
X151387976Y-40970238D02*
X151340357Y-41065476D01*
X151340357Y-41065476D02*
X151292738Y-41113095D01*
X151292738Y-41113095D02*
X151197500Y-41160714D01*
X151197500Y-41160714D02*
X151054643Y-41160714D01*
X151054643Y-41160714D02*
X150959405Y-41113095D01*
X151387976Y-40779761D02*
X151292738Y-40827380D01*
X151292738Y-40827380D02*
X151102262Y-40827380D01*
X151102262Y-40827380D02*
X151007024Y-40779761D01*
X151007024Y-40779761D02*
X150959405Y-40732142D01*
X150959405Y-40732142D02*
X150911786Y-40636904D01*
X150911786Y-40636904D02*
X150911786Y-40351190D01*
X150911786Y-40351190D02*
X150959405Y-40255952D01*
X150959405Y-40255952D02*
X151007024Y-40208333D01*
X151007024Y-40208333D02*
X151102262Y-40160714D01*
X151102262Y-40160714D02*
X151292738Y-40160714D01*
X151292738Y-40160714D02*
X151387976Y-40208333D01*
X151816548Y-40779761D02*
X151911786Y-40827380D01*
X151911786Y-40827380D02*
X152102262Y-40827380D01*
X152102262Y-40827380D02*
X152197500Y-40779761D01*
X152197500Y-40779761D02*
X152245119Y-40684523D01*
X152245119Y-40684523D02*
X152245119Y-40636904D01*
X152245119Y-40636904D02*
X152197500Y-40541666D01*
X152197500Y-40541666D02*
X152102262Y-40494047D01*
X152102262Y-40494047D02*
X151959405Y-40494047D01*
X151959405Y-40494047D02*
X151864167Y-40446428D01*
X151864167Y-40446428D02*
X151816548Y-40351190D01*
X151816548Y-40351190D02*
X151816548Y-40303571D01*
X151816548Y-40303571D02*
X151864167Y-40208333D01*
X151864167Y-40208333D02*
X151959405Y-40160714D01*
X151959405Y-40160714D02*
X152102262Y-40160714D01*
X152102262Y-40160714D02*
X152197500Y-40208333D01*
X153416548Y-40827380D02*
X153321310Y-40779761D01*
X153321310Y-40779761D02*
X153273691Y-40684523D01*
X153273691Y-40684523D02*
X153273691Y-39827380D01*
X154226072Y-40827380D02*
X154226072Y-40303571D01*
X154226072Y-40303571D02*
X154178453Y-40208333D01*
X154178453Y-40208333D02*
X154083215Y-40160714D01*
X154083215Y-40160714D02*
X153892739Y-40160714D01*
X153892739Y-40160714D02*
X153797501Y-40208333D01*
X154226072Y-40779761D02*
X154130834Y-40827380D01*
X154130834Y-40827380D02*
X153892739Y-40827380D01*
X153892739Y-40827380D02*
X153797501Y-40779761D01*
X153797501Y-40779761D02*
X153749882Y-40684523D01*
X153749882Y-40684523D02*
X153749882Y-40589285D01*
X153749882Y-40589285D02*
X153797501Y-40494047D01*
X153797501Y-40494047D02*
X153892739Y-40446428D01*
X153892739Y-40446428D02*
X154130834Y-40446428D01*
X154130834Y-40446428D02*
X154226072Y-40398809D01*
X154607025Y-40160714D02*
X154845120Y-40827380D01*
X155083215Y-40160714D02*
X154845120Y-40827380D01*
X154845120Y-40827380D02*
X154749882Y-41065476D01*
X154749882Y-41065476D02*
X154702263Y-41113095D01*
X154702263Y-41113095D02*
X154607025Y-41160714D01*
X155845120Y-40779761D02*
X155749882Y-40827380D01*
X155749882Y-40827380D02*
X155559406Y-40827380D01*
X155559406Y-40827380D02*
X155464168Y-40779761D01*
X155464168Y-40779761D02*
X155416549Y-40684523D01*
X155416549Y-40684523D02*
X155416549Y-40303571D01*
X155416549Y-40303571D02*
X155464168Y-40208333D01*
X155464168Y-40208333D02*
X155559406Y-40160714D01*
X155559406Y-40160714D02*
X155749882Y-40160714D01*
X155749882Y-40160714D02*
X155845120Y-40208333D01*
X155845120Y-40208333D02*
X155892739Y-40303571D01*
X155892739Y-40303571D02*
X155892739Y-40398809D01*
X155892739Y-40398809D02*
X155416549Y-40494047D01*
X156321311Y-40827380D02*
X156321311Y-40160714D01*
X156321311Y-40351190D02*
X156368930Y-40255952D01*
X156368930Y-40255952D02*
X156416549Y-40208333D01*
X156416549Y-40208333D02*
X156511787Y-40160714D01*
X156511787Y-40160714D02*
X156607025Y-40160714D01*
%TD*%
M02*
